Coordinates
version=1
nRows=15
nColumns=42
inDegrees=yes

Units are S.I. units (second, meters, Newtons, ...)
If the header above contains a line with 'inDegrees', this indicates whether rotational values are in degrees (yes) or radians (no).

endheader
time	pelvis_tilt	pelvis_list	pelvis_rotation	pelvis_tx	pelvis_ty	pelvis_tz	hip_flexion_r	hip_adduction_r	hip_rotation_r	knee_angle_r	knee_adduction_r	knee_angle_r_beta	ankle_angle_r	subtalar_angle_r	mtp_angle_r	hip_flexion_l	hip_adduction_l	hip_rotation_l	knee_angle_l	knee_adduction_l	knee_angle_l_beta	ankle_angle_l	subtalar_angle_l	mtp_angle_l	lumbar_extension	lumbar_bending	lumbar_rotation	arm_flex_r	arm_add_r	arm_rot_r	elbow_flex_r	pro_sup_r	wrist_flex_r	wrist_dev_r	arm_flex_l	arm_add_l	arm_rot_l	elbow_flex_l	pro_sup_l	wrist_flex_l	wrist_dev_l
      8.50000000	      7.39579956	     -1.16300288	     -3.98444975	      0.97753969	      0.93856151	     -0.14629831	     10.74714102	     -9.03021597	    -25.10005130	     27.20283555	      5.38024217	      0.47477905	      5.94646618	     15.82693079	     -7.50017838	     -4.89113606	     -1.16275664	    -18.83644601	     25.16712355	      3.04263336	      0.43924917	     20.39193676	     -0.86399024	     -7.50017838	    -17.99430520	     -1.48478785	     -2.37959813	      5.84273792	     -7.82663732	      1.39052402	     37.76473291	     90.00000001	      0.00000000	      0.00000000	    -11.60916451	    -12.28726135	     -0.11906438	     49.09850150	     90.00000001	      0.00000000	      0.00000000
      8.51000000	      7.50683021	     -0.98851014	     -3.71737998	      0.98058832	      0.93818337	     -0.14573108	     10.64739356	     -8.95279470	    -25.03690751	     27.50964119	      4.90746757	      0.48013381	      6.56310152	     15.13657808	     -7.50017720	     -5.14483747	     -0.92131439	    -18.52939140	     25.19306149	      2.81088523	      0.43970187	     20.63087781	     -0.74730359	     -7.50017720	    -18.03844029	     -1.50496143	     -2.42845186	      5.76298328	     -7.85965482	      1.23854027	     37.51439859	     90.00000001	      0.00000000	      0.00000000	    -11.30053165	    -12.29142465	     -0.01579328	     48.98066172	     90.00000001	      0.00000000	      0.00000000
      8.52000000	      7.46023730	     -0.78485543	     -3.43917158	      0.98391650	      0.93756826	     -0.14517566	     10.67411732	     -9.02749807	    -24.85854338	     27.87895752	      4.76518950	      0.48657960	      7.23256761	     14.19767371	     -7.50017514	     -5.32861993	     -0.74139671	    -18.26204401	     25.07047048	      2.80584985	      0.43756225	     20.86946994	     -0.58980149	     -7.50017514	    -17.86398522	     -1.53517552	     -2.56668300	      5.65388483	     -7.81769779	      0.92818254	     37.22020466	     90.00000001	      0.00000000	      0.00000000	    -11.10425034	    -12.30865833	      0.13516365	     48.81473633	     90.00000001	      0.00000000	      0.00000000
      8.53000000	      7.45690724	     -0.63417510	     -3.22105190	      0.98710379	      0.93708546	     -0.14450709	     10.67163069	     -9.00908242	    -24.57361793	     28.18661867	      4.54976941	      0.49194930	      7.62754481	     13.57571963	     -7.50017353	     -5.51605703	     -0.57754914	    -18.04264707	     25.03717322	      2.68221922	      0.43698111	     21.00099687	     -0.53628776	     -7.50017353	    -17.77574188	     -1.52870596	     -2.60454726	      5.56870715	     -7.83923611	      0.70679680	     37.00004452	     90.00000001	      0.00000000	      0.00000000	    -10.90031489	    -12.28591302	      0.19836128	     48.75390004	     90.00000001	      0.00000000	      0.00000000
      8.54000000	      7.31879328	     -0.39640094	     -3.06263940	      0.99020643	      0.93642335	     -0.14374749	     10.86230575	     -9.13400980	    -23.83374604	     28.57892572	      4.64137496	      0.49879635	      7.95604510	     12.06348401	     -7.50016655	     -5.56759176	     -0.31394908	    -17.77510345	     24.94312421	      2.59839527	      0.43533964	     21.07993247	     -0.62817841	     -7.50016655	    -17.53403287	     -1.62343180	     -2.59842403	      5.53652622	     -7.73048680	      0.05685859	     36.63338138	     90.00000001	      0.00000000	      0.00000000	    -10.70055791	    -12.27029694	      0.28788392	     48.67117877	     90.00000001	      0.00000000	      0.00000000
      8.55000000	      7.31629226	     -0.33016509	     -2.82521196	      0.99355987	      0.93605439	     -0.14304556	     10.77762876	     -9.06344508	    -23.65674421	     28.76190260	      4.44986701	      0.50198990	      8.09493615	     11.96793978	     -7.50016622	     -5.77605306	     -0.30768891	    -17.68602016	     24.94786363	      2.51641887	      0.43542236	     21.11706292	     -0.61564904	     -7.50016622	    -17.44190378	     -1.51542701	     -2.65372495	      5.40795938	     -7.82047310	      0.03080934	     36.52182246	     90.00000001	      0.00000000	      0.00000000	    -10.55603338	    -12.20748327	      0.29424535	     48.69051421	     90.00000001	      0.00000000	      0.00000000
      8.56000000	      7.37123255	     -0.28062153	     -2.63985864	      0.99686421	      0.93576548	     -0.14216236	     10.76985638	     -8.95168445	    -23.55427328	     29.27299928	      4.11327348	      0.51091022	      8.88822315	     11.35795201	     -7.50016489	     -6.13939405	     -0.27134898	    -17.40229013	     24.74907330	      2.49030313	      0.43195282	     21.34067421	     -0.52747080	     -7.50016489	    -17.42143985	     -1.41351270	     -2.67644460	      5.41188288	     -7.88161039	     -0.06305145	     36.30541326	     90.00000001	      0.00000000	      0.00000000	    -10.33837245	    -12.11775917	      0.28279678	     48.52605176	     90.00000001	      0.00000000	      0.00000000
      8.57000000	      7.23356656	     -0.06492585	     -2.50009308	      1.00008939	      0.93520796	     -0.14129146	     10.96562203	     -9.13167133	    -22.99483203	     29.76861671	      4.20931366	      0.51956038	      9.32292288	     10.40237778	     -7.50015943	     -6.27679120	     -0.03314719	    -17.15632878	     24.51983715	      2.42980478	      0.42795189	     21.42223965	     -0.51385258	     -7.50015943	    -17.18531661	     -1.49369656	     -2.71033163	      5.41189638	     -7.82678872	     -0.48729542	     35.99896674	     90.00000001	      0.00000000	      0.00000000	    -10.19173471	    -12.06669314	      0.16391160	     48.47082928	     90.00000001	      0.00000000	      0.00000000
      8.58000000	      7.16414075	      0.01411504	     -2.35922680	      1.00339289	      0.93486287	     -0.14036242	     10.90326607	     -9.11861841	    -22.89432740	     29.84979872	      4.12318741	      0.52097727	      9.34985621	     10.38622602	     -7.50015933	     -6.42275560	     -0.03684304	    -17.14705067	     24.53316570	      2.40942496	      0.42818452	     21.42914520	     -0.51294821	     -7.50015933	    -17.04109698	     -1.42646162	     -2.75338629	      5.37632372	     -7.88120423	     -0.50280693	     35.96497064	     90.00000001	      0.00000000	      0.00000000	    -10.11661096	    -11.99219198	      0.18072392	     48.50616579	     90.00000001	      0.00000000	      0.00000000
      8.59000000	      7.20596152	     -0.08384774	     -2.15699325	      1.00663017	      0.93462323	     -0.13954698	     10.89028889	     -8.91346746	    -22.72629160	     30.40369760	      3.91756737	      0.53064463	      9.83725088	     10.09293588	     -7.50015868	     -6.77226026	     -0.16023726	    -16.96973469	     24.34250816	      2.28071438	      0.42485692	     21.55314297	     -0.43945580	     -7.50015868	    -17.04029399	     -1.13359903	     -2.76374282	      5.39952289	     -8.02184326	     -0.57923042	     35.79986742	     90.00000001	      0.00000000	      0.00000000	     -9.94727792	    -11.84194115	      0.18849181	     48.48546593	     90.00000001	      0.00000000	      0.00000000
      8.60000000	      7.15092930	     -0.04313773	     -2.05290760	      1.01001923	      0.93426521	     -0.13848512	     10.94457433	     -8.88377593	    -22.69717188	     30.86230686	      3.74887358	      0.53864887	     10.44340532	      9.69940647	     -7.50015776	     -7.08930746	     -0.22236201	    -16.90929044	     24.07381006	      2.39562359	      0.42016725	     21.72767329	     -0.31594359	     -7.50015776	    -16.90334953	     -1.03005863	     -2.77734261	      5.42336509	     -8.07096175	     -0.68863595	     35.62056331	     90.00000001	      0.00000000	      0.00000000	     -9.85195520	    -11.74656890	      0.14874815	     48.43104049	     90.00000001	      0.00000000	      0.00000000
      8.61000000	      7.02493896	      0.13784866	     -2.00269976	      1.01327969	      0.93380206	     -0.13736580	     11.09446303	     -9.02266016	    -22.50132871	     31.31194254	      3.66904221	      0.54649649	     11.00440877	      9.31392504	     -7.50015522	     -7.30238924	     -0.08341442	    -16.82942656	     23.80725938	      2.43703170	      0.41551506	     21.88219822	     -0.02477074	     -7.50015522	    -16.70081757	     -1.10433632	     -2.78955435	      5.50867560	     -8.04764836	     -0.99440119	     35.37160584	     90.00000001	      0.00000000	      0.00000000	     -9.80623192	    -11.65337122	      0.01790177	     48.44546443	     90.00000001	      0.00000000	      0.00000000
      8.62000000	      6.92353843	      0.13861845	     -1.90549522	      1.01650153	      0.93342028	     -0.13628838	     11.13904956	     -8.99142764	    -22.49904786	     31.67121776	      3.62112156	      0.55276703	     11.31295214	      9.17286974	     -7.50015367	     -7.50177043	     -0.17963521	    -16.89424494	     23.63670673	      2.42754219	      0.41253836	     21.96722235	      0.09507263	     -7.50015367	    -16.54639931	     -0.95462356	     -2.81242791	      5.57944127	     -8.09257035	     -1.15881677	     35.24107757	     90.00000001	      0.00000000	      0.00000000	     -9.74169149	    -11.55879725	     -0.01390514	     48.50367015	     90.00000001	      0.00000000	      0.00000000
      8.63000000	      6.80539298	      0.11379876	     -1.82497004	      1.01969890	      0.93302972	     -0.13521397	     11.16626750	     -8.93857853	    -22.53461241	     31.96704568	      3.59773472	      0.55793020	     11.56856786	      9.12099259	     -7.50015278	     -7.67713481	     -0.28636478	    -16.93992791	     23.47362664	      2.39832043	      0.40969207	     22.03546521	      0.19374166	     -7.50015278	    -16.38377173	     -0.77339175	     -2.84262809	      5.66559416	     -8.16083110	     -1.26613067	     35.16148762	     90.00000001	      0.00000000	      0.00000000	     -9.71620239	    -11.46455048	     -0.01703823	     48.56408234	     90.00000001	      0.00000000	      0.00000000
      8.64000000	      6.68038007	      0.12098080	     -1.76140537	      1.02287190	      0.93264275	     -0.13405145	     11.20246274	     -8.90723998	    -22.64162914	     32.26022612	      3.52174963	      0.56304716	     11.88998827	      9.10280320	     -7.50015187	     -7.85299484	     -0.38432778	    -17.01182180	     23.30406429	      2.42831478	      0.40673265	     22.12252218	      0.32885001	     -7.50015187	    -16.21775122	     -0.64640285	     -2.86618230	      5.77196305	     -8.21771887	     -1.38130495	     35.07206509	     90.00000001	      0.00000000	      0.00000000	     -9.70535461	    -11.37731480	     -0.02199268	     48.64173023	     90.00000001	      0.00000000	      0.00000000
